<?xml version="1.0" standalone="no"?>
<!DOCTYPE svg PUBLIC "-//W3C//DTD SVG 20010904//EN"
 "http://www.w3.org/TR/2001/REC-SVG-20010904/DTD/svg10.dtd">
<svg version="1.0" xmlns="http://www.w3.org/2000/svg"
 width="32.000000pt" height="32.000000pt" viewBox="0 0 32.000000 32.000000"
 preserveAspectRatio="xMidYMid meet">

<g transform="translate(0.000000,32.000000) scale(0.100000,-0.100000)"
fill="#000000" stroke="none">
<path d="M120 310 c-8 -5 -32 -15 -52 -20 -41 -12 -50 -35 -18 -45 29 -9 24
-23 -15 -42 -34 -16 -35 -18 -35 -75 0 -32 3 -58 8 -59 4 0 18 -2 31 -3 14 -2
27 -8 29 -15 4 -13 74 -51 95 -51 8 0 22 9 32 20 10 11 21 17 26 15 4 -3 28 5
53 17 l46 22 0 56 c0 54 -1 57 -35 73 -39 19 -44 33 -15 42 34 11 22 32 -27
50 -64 23 -105 28 -123 15z m88 -16 c12 -8 22 -20 22 -26 0 -7 -9 -2 -20 10
-12 13 -33 22 -49 22 -33 0 -70 -33 -50 -46 7 -4 10 -3 5 4 -3 6 2 16 13 22
29 15 33 -2 6 -23 -17 -12 -26 -14 -31 -6 -4 8 -9 7 -15 -2 -7 -11 -9 -11 -9
-1 0 7 11 24 25 37 28 29 70 32 103 9z m-128 -23 c0 -14 -18 -23 -30 -16 -6 4
-8 11 -5 16 8 12 35 12 35 0z m188 -6 c-2 -5 -9 -9 -15 -9 -7 1 -13 -2 -13 -8
0 -5 -18 -8 -40 -6 -31 1 -37 5 -28 15 5 7 15 10 22 6 20 -13 37 -12 43 3 6
16 36 15 31 -1z m-150 -71 c15 -4 30 -7 34 -6 10 2 2 -32 -9 -35 -5 -2 -22 1
-36 6 -22 9 -27 17 -26 43 1 18 3 26 6 16 2 -9 16 -20 31 -24z m121 4 c-1 -18
-3 -25 -6 -15 -6 23 -23 22 -18 -2 2 -11 -3 -22 -10 -25 -9 -3 -12 1 -10 14 2
12 -4 20 -19 24 -13 3 -23 12 -23 21 0 11 12 15 44 15 42 0 43 -1 42 -32z
m-157 -35 c5 -6 32 -17 60 -24 44 -10 49 -14 35 -24 -12 -8 -17 -27 -17 -59 0
-25 -2 -46 -5 -46 -2 0 -20 8 -40 17 -29 14 -35 22 -35 48 0 24 -6 35 -25 43
-34 16 -33 16 -38 -15 -2 -16 -5 -5 -6 24 -1 48 2 54 27 67 24 13 27 13 31 -2
2 -9 7 -22 13 -29z m218 16 c0 -10 -30 -20 -41 -13 -5 3 -9 14 -9 24 0 17 3
18 25 8 14 -6 25 -15 25 -19z m-232 -93 c3 -12 -1 -17 -10 -14 -7 3 -15 13
-16 22 -3 12 1 17 10 14 7 -3 15 -13 16 -22z"/>
<path d="M100 70 c0 -11 2 -20 4 -20 2 0 11 -3 20 -6 11 -4 16 0 16 14 0 11
-7 23 -16 26 -23 9 -24 8 -24 -14z m25 0 c3 -5 1 -10 -4 -10 -6 0 -11 5 -11
10 0 6 2 10 4 10 3 0 8 -4 11 -10z"/>
</g>
</svg>
